<mxfile host="app.diagrams.net" modified="2024-05-28T00:09:22.833Z" agent="Mozilla/5.0 (Windows NT 10.0; Win64; x64) AppleWebKit/537.36 (KHTML, like Gecko) Chrome/125.0.0.0 Safari/537.36" etag="R4he12u1tiY7YoMcaBW3" version="24.4.9" type="device">
  <diagram name="Страница — 1" id="DYPSEwkAnSq8GklyQlXn">
    <mxGraphModel dx="2022" dy="622" grid="1" gridSize="10" guides="1" tooltips="1" connect="1" arrows="1" fold="1" page="1" pageScale="1" pageWidth="827" pageHeight="1169" math="0" shadow="0">
      <root>
        <mxCell id="0" />
        <mxCell id="1" parent="0" />
        <mxCell id="qPF_Vhii6mmHq2eTDAJq-5" value="«interface»&lt;br&gt;&lt;b&gt;IReader&lt;/b&gt;" style="html=1;whiteSpace=wrap;" vertex="1" parent="1">
          <mxGeometry x="40" y="40" width="110" height="50" as="geometry" />
        </mxCell>
        <mxCell id="qPF_Vhii6mmHq2eTDAJq-6" value="Filereader" style="swimlane;fontStyle=1;align=center;verticalAlign=top;childLayout=stackLayout;horizontal=1;startSize=26;horizontalStack=0;resizeParent=1;resizeParentMax=0;resizeLast=0;collapsible=1;marginBottom=0;whiteSpace=wrap;html=1;" vertex="1" parent="1">
          <mxGeometry x="15" y="150" width="160" height="112" as="geometry" />
        </mxCell>
        <mxCell id="qPF_Vhii6mmHq2eTDAJq-7" value="nextReader: FileReader" style="text;strokeColor=none;fillColor=none;align=left;verticalAlign=top;spacingLeft=4;spacingRight=4;overflow=hidden;rotatable=0;points=[[0,0.5],[1,0.5]];portConstraint=eastwest;whiteSpace=wrap;html=1;" vertex="1" parent="qPF_Vhii6mmHq2eTDAJq-6">
          <mxGeometry y="26" width="160" height="26" as="geometry" />
        </mxCell>
        <mxCell id="qPF_Vhii6mmHq2eTDAJq-8" value="" style="line;strokeWidth=1;fillColor=none;align=left;verticalAlign=middle;spacingTop=-1;spacingLeft=3;spacingRight=3;rotatable=0;labelPosition=right;points=[];portConstraint=eastwest;strokeColor=inherit;" vertex="1" parent="qPF_Vhii6mmHq2eTDAJq-6">
          <mxGeometry y="52" width="160" height="8" as="geometry" />
        </mxCell>
        <mxCell id="qPF_Vhii6mmHq2eTDAJq-9" value="+ readFile()" style="text;strokeColor=none;fillColor=none;align=left;verticalAlign=top;spacingLeft=4;spacingRight=4;overflow=hidden;rotatable=0;points=[[0,0.5],[1,0.5]];portConstraint=eastwest;whiteSpace=wrap;html=1;" vertex="1" parent="qPF_Vhii6mmHq2eTDAJq-6">
          <mxGeometry y="60" width="160" height="26" as="geometry" />
        </mxCell>
        <mxCell id="qPF_Vhii6mmHq2eTDAJq-10" value="+ parseReactor()" style="text;strokeColor=none;fillColor=none;align=left;verticalAlign=top;spacingLeft=4;spacingRight=4;overflow=hidden;rotatable=0;points=[[0,0.5],[1,0.5]];portConstraint=eastwest;whiteSpace=wrap;html=1;" vertex="1" parent="qPF_Vhii6mmHq2eTDAJq-6">
          <mxGeometry y="86" width="160" height="26" as="geometry" />
        </mxCell>
        <mxCell id="qPF_Vhii6mmHq2eTDAJq-11" value="" style="endArrow=block;dashed=1;endFill=0;endSize=12;html=1;rounded=0;" edge="1" parent="1" source="qPF_Vhii6mmHq2eTDAJq-6" target="qPF_Vhii6mmHq2eTDAJq-5">
          <mxGeometry width="160" relative="1" as="geometry">
            <mxPoint x="110" y="110" as="sourcePoint" />
            <mxPoint x="270" y="110" as="targetPoint" />
          </mxGeometry>
        </mxCell>
        <mxCell id="qPF_Vhii6mmHq2eTDAJq-12" value="JsonReader" style="swimlane;fontStyle=1;align=center;verticalAlign=top;childLayout=stackLayout;horizontal=1;startSize=26;horizontalStack=0;resizeParent=1;resizeParentMax=0;resizeLast=0;collapsible=1;marginBottom=0;whiteSpace=wrap;html=1;" vertex="1" parent="1">
          <mxGeometry x="2.5" y="320" width="185" height="112" as="geometry" />
        </mxCell>
        <mxCell id="qPF_Vhii6mmHq2eTDAJq-13" value="reactorHolder: ReactorHolder" style="text;strokeColor=none;fillColor=none;align=left;verticalAlign=top;spacingLeft=4;spacingRight=4;overflow=hidden;rotatable=0;points=[[0,0.5],[1,0.5]];portConstraint=eastwest;whiteSpace=wrap;html=1;" vertex="1" parent="qPF_Vhii6mmHq2eTDAJq-12">
          <mxGeometry y="26" width="185" height="26" as="geometry" />
        </mxCell>
        <mxCell id="qPF_Vhii6mmHq2eTDAJq-16" value="check: Boolean" style="text;strokeColor=none;fillColor=none;align=left;verticalAlign=top;spacingLeft=4;spacingRight=4;overflow=hidden;rotatable=0;points=[[0,0.5],[1,0.5]];portConstraint=eastwest;whiteSpace=wrap;html=1;" vertex="1" parent="qPF_Vhii6mmHq2eTDAJq-12">
          <mxGeometry y="52" width="185" height="26" as="geometry" />
        </mxCell>
        <mxCell id="qPF_Vhii6mmHq2eTDAJq-14" value="" style="line;strokeWidth=1;fillColor=none;align=left;verticalAlign=middle;spacingTop=-1;spacingLeft=3;spacingRight=3;rotatable=0;labelPosition=right;points=[];portConstraint=eastwest;strokeColor=inherit;" vertex="1" parent="qPF_Vhii6mmHq2eTDAJq-12">
          <mxGeometry y="78" width="185" height="8" as="geometry" />
        </mxCell>
        <mxCell id="qPF_Vhii6mmHq2eTDAJq-15" value="+ readFile()" style="text;strokeColor=none;fillColor=none;align=left;verticalAlign=top;spacingLeft=4;spacingRight=4;overflow=hidden;rotatable=0;points=[[0,0.5],[1,0.5]];portConstraint=eastwest;whiteSpace=wrap;html=1;" vertex="1" parent="qPF_Vhii6mmHq2eTDAJq-12">
          <mxGeometry y="86" width="185" height="26" as="geometry" />
        </mxCell>
        <mxCell id="qPF_Vhii6mmHq2eTDAJq-21" value="YamlReader" style="swimlane;fontStyle=1;align=center;verticalAlign=top;childLayout=stackLayout;horizontal=1;startSize=26;horizontalStack=0;resizeParent=1;resizeParentMax=0;resizeLast=0;collapsible=1;marginBottom=0;whiteSpace=wrap;html=1;" vertex="1" parent="1">
          <mxGeometry x="-210" y="320" width="185" height="112" as="geometry" />
        </mxCell>
        <mxCell id="qPF_Vhii6mmHq2eTDAJq-22" value="reactorHolder: ReactorHolder" style="text;strokeColor=none;fillColor=none;align=left;verticalAlign=top;spacingLeft=4;spacingRight=4;overflow=hidden;rotatable=0;points=[[0,0.5],[1,0.5]];portConstraint=eastwest;whiteSpace=wrap;html=1;" vertex="1" parent="qPF_Vhii6mmHq2eTDAJq-21">
          <mxGeometry y="26" width="185" height="26" as="geometry" />
        </mxCell>
        <mxCell id="qPF_Vhii6mmHq2eTDAJq-23" value="check: Boolean" style="text;strokeColor=none;fillColor=none;align=left;verticalAlign=top;spacingLeft=4;spacingRight=4;overflow=hidden;rotatable=0;points=[[0,0.5],[1,0.5]];portConstraint=eastwest;whiteSpace=wrap;html=1;" vertex="1" parent="qPF_Vhii6mmHq2eTDAJq-21">
          <mxGeometry y="52" width="185" height="26" as="geometry" />
        </mxCell>
        <mxCell id="qPF_Vhii6mmHq2eTDAJq-24" value="" style="line;strokeWidth=1;fillColor=none;align=left;verticalAlign=middle;spacingTop=-1;spacingLeft=3;spacingRight=3;rotatable=0;labelPosition=right;points=[];portConstraint=eastwest;strokeColor=inherit;" vertex="1" parent="qPF_Vhii6mmHq2eTDAJq-21">
          <mxGeometry y="78" width="185" height="8" as="geometry" />
        </mxCell>
        <mxCell id="qPF_Vhii6mmHq2eTDAJq-25" value="+ readFile()" style="text;strokeColor=none;fillColor=none;align=left;verticalAlign=top;spacingLeft=4;spacingRight=4;overflow=hidden;rotatable=0;points=[[0,0.5],[1,0.5]];portConstraint=eastwest;whiteSpace=wrap;html=1;" vertex="1" parent="qPF_Vhii6mmHq2eTDAJq-21">
          <mxGeometry y="86" width="185" height="26" as="geometry" />
        </mxCell>
        <mxCell id="qPF_Vhii6mmHq2eTDAJq-26" value="XmlReader" style="swimlane;fontStyle=1;align=center;verticalAlign=top;childLayout=stackLayout;horizontal=1;startSize=26;horizontalStack=0;resizeParent=1;resizeParentMax=0;resizeLast=0;collapsible=1;marginBottom=0;whiteSpace=wrap;html=1;" vertex="1" parent="1">
          <mxGeometry x="230" y="320" width="185" height="112" as="geometry" />
        </mxCell>
        <mxCell id="qPF_Vhii6mmHq2eTDAJq-27" value="reactorHolder: ReactorHolder" style="text;strokeColor=none;fillColor=none;align=left;verticalAlign=top;spacingLeft=4;spacingRight=4;overflow=hidden;rotatable=0;points=[[0,0.5],[1,0.5]];portConstraint=eastwest;whiteSpace=wrap;html=1;" vertex="1" parent="qPF_Vhii6mmHq2eTDAJq-26">
          <mxGeometry y="26" width="185" height="26" as="geometry" />
        </mxCell>
        <mxCell id="qPF_Vhii6mmHq2eTDAJq-28" value="check: Boolean" style="text;strokeColor=none;fillColor=none;align=left;verticalAlign=top;spacingLeft=4;spacingRight=4;overflow=hidden;rotatable=0;points=[[0,0.5],[1,0.5]];portConstraint=eastwest;whiteSpace=wrap;html=1;" vertex="1" parent="qPF_Vhii6mmHq2eTDAJq-26">
          <mxGeometry y="52" width="185" height="26" as="geometry" />
        </mxCell>
        <mxCell id="qPF_Vhii6mmHq2eTDAJq-29" value="" style="line;strokeWidth=1;fillColor=none;align=left;verticalAlign=middle;spacingTop=-1;spacingLeft=3;spacingRight=3;rotatable=0;labelPosition=right;points=[];portConstraint=eastwest;strokeColor=inherit;" vertex="1" parent="qPF_Vhii6mmHq2eTDAJq-26">
          <mxGeometry y="78" width="185" height="8" as="geometry" />
        </mxCell>
        <mxCell id="qPF_Vhii6mmHq2eTDAJq-30" value="+ readFile()" style="text;strokeColor=none;fillColor=none;align=left;verticalAlign=top;spacingLeft=4;spacingRight=4;overflow=hidden;rotatable=0;points=[[0,0.5],[1,0.5]];portConstraint=eastwest;whiteSpace=wrap;html=1;" vertex="1" parent="qPF_Vhii6mmHq2eTDAJq-26">
          <mxGeometry y="86" width="185" height="26" as="geometry" />
        </mxCell>
        <mxCell id="qPF_Vhii6mmHq2eTDAJq-31" value="" style="endArrow=block;endSize=16;endFill=0;html=1;rounded=0;" edge="1" parent="1" source="qPF_Vhii6mmHq2eTDAJq-12" target="qPF_Vhii6mmHq2eTDAJq-6">
          <mxGeometry width="160" relative="1" as="geometry">
            <mxPoint x="110" y="280" as="sourcePoint" />
            <mxPoint x="270" y="280" as="targetPoint" />
          </mxGeometry>
        </mxCell>
        <mxCell id="qPF_Vhii6mmHq2eTDAJq-32" value="" style="endArrow=block;endSize=16;endFill=0;html=1;rounded=0;" edge="1" parent="1" source="qPF_Vhii6mmHq2eTDAJq-21" target="qPF_Vhii6mmHq2eTDAJq-6">
          <mxGeometry width="160" relative="1" as="geometry">
            <mxPoint x="110" y="280" as="sourcePoint" />
            <mxPoint x="270" y="280" as="targetPoint" />
          </mxGeometry>
        </mxCell>
        <mxCell id="qPF_Vhii6mmHq2eTDAJq-33" value="" style="endArrow=block;endSize=16;endFill=0;html=1;rounded=0;" edge="1" parent="1" source="qPF_Vhii6mmHq2eTDAJq-26" target="qPF_Vhii6mmHq2eTDAJq-6">
          <mxGeometry width="160" relative="1" as="geometry">
            <mxPoint x="110" y="280" as="sourcePoint" />
            <mxPoint x="270" y="280" as="targetPoint" />
          </mxGeometry>
        </mxCell>
        <mxCell id="qPF_Vhii6mmHq2eTDAJq-34" value="Frame" style="swimlane;fontStyle=1;align=center;verticalAlign=top;childLayout=stackLayout;horizontal=1;startSize=26;horizontalStack=0;resizeParent=1;resizeParentMax=0;resizeLast=0;collapsible=1;marginBottom=0;whiteSpace=wrap;html=1;" vertex="1" parent="1">
          <mxGeometry x="730" y="40" width="160" height="60" as="geometry" />
        </mxCell>
        <mxCell id="qPF_Vhii6mmHq2eTDAJq-35" value="panel: JPanel" style="text;strokeColor=none;fillColor=none;align=left;verticalAlign=top;spacingLeft=4;spacingRight=4;overflow=hidden;rotatable=0;points=[[0,0.5],[1,0.5]];portConstraint=eastwest;whiteSpace=wrap;html=1;" vertex="1" parent="qPF_Vhii6mmHq2eTDAJq-34">
          <mxGeometry y="26" width="160" height="26" as="geometry" />
        </mxCell>
        <mxCell id="qPF_Vhii6mmHq2eTDAJq-36" value="" style="line;strokeWidth=1;fillColor=none;align=left;verticalAlign=middle;spacingTop=-1;spacingLeft=3;spacingRight=3;rotatable=0;labelPosition=right;points=[];portConstraint=eastwest;strokeColor=inherit;" vertex="1" parent="qPF_Vhii6mmHq2eTDAJq-34">
          <mxGeometry y="52" width="160" height="8" as="geometry" />
        </mxCell>
        <mxCell id="qPF_Vhii6mmHq2eTDAJq-38" value="Panel" style="swimlane;fontStyle=1;align=center;verticalAlign=top;childLayout=stackLayout;horizontal=1;startSize=26;horizontalStack=0;resizeParent=1;resizeParentMax=0;resizeLast=0;collapsible=1;marginBottom=0;whiteSpace=wrap;html=1;" vertex="1" parent="1">
          <mxGeometry x="715" y="150" width="190" height="242" as="geometry" />
        </mxCell>
        <mxCell id="qPF_Vhii6mmHq2eTDAJq-39" value="jfilechooser: JFilechooser" style="text;strokeColor=none;fillColor=none;align=left;verticalAlign=top;spacingLeft=4;spacingRight=4;overflow=hidden;rotatable=0;points=[[0,0.5],[1,0.5]];portConstraint=eastwest;whiteSpace=wrap;html=1;" vertex="1" parent="qPF_Vhii6mmHq2eTDAJq-38">
          <mxGeometry y="26" width="190" height="26" as="geometry" />
        </mxCell>
        <mxCell id="qPF_Vhii6mmHq2eTDAJq-49" value="path: String" style="text;strokeColor=none;fillColor=none;align=left;verticalAlign=top;spacingLeft=4;spacingRight=4;overflow=hidden;rotatable=0;points=[[0,0.5],[1,0.5]];portConstraint=eastwest;whiteSpace=wrap;html=1;" vertex="1" parent="qPF_Vhii6mmHq2eTDAJq-38">
          <mxGeometry y="52" width="190" height="26" as="geometry" />
        </mxCell>
        <mxCell id="qPF_Vhii6mmHq2eTDAJq-48" value="parseM: ParseM" style="text;strokeColor=none;fillColor=none;align=left;verticalAlign=top;spacingLeft=4;spacingRight=4;overflow=hidden;rotatable=0;points=[[0,0.5],[1,0.5]];portConstraint=eastwest;whiteSpace=wrap;html=1;" vertex="1" parent="qPF_Vhii6mmHq2eTDAJq-38">
          <mxGeometry y="78" width="190" height="26" as="geometry" />
        </mxCell>
        <mxCell id="qPF_Vhii6mmHq2eTDAJq-47" value="reactorHolder: ReactorHolder" style="text;strokeColor=none;fillColor=none;align=left;verticalAlign=top;spacingLeft=4;spacingRight=4;overflow=hidden;rotatable=0;points=[[0,0.5],[1,0.5]];portConstraint=eastwest;whiteSpace=wrap;html=1;" vertex="1" parent="qPF_Vhii6mmHq2eTDAJq-38">
          <mxGeometry y="104" width="190" height="26" as="geometry" />
        </mxCell>
        <mxCell id="qPF_Vhii6mmHq2eTDAJq-46" value="tree: Tree" style="text;strokeColor=none;fillColor=none;align=left;verticalAlign=top;spacingLeft=4;spacingRight=4;overflow=hidden;rotatable=0;points=[[0,0.5],[1,0.5]];portConstraint=eastwest;whiteSpace=wrap;html=1;" vertex="1" parent="qPF_Vhii6mmHq2eTDAJq-38">
          <mxGeometry y="130" width="190" height="26" as="geometry" />
        </mxCell>
        <mxCell id="qPF_Vhii6mmHq2eTDAJq-45" value="jsonReader: JsonReader" style="text;strokeColor=none;fillColor=none;align=left;verticalAlign=top;spacingLeft=4;spacingRight=4;overflow=hidden;rotatable=0;points=[[0,0.5],[1,0.5]];portConstraint=eastwest;whiteSpace=wrap;html=1;" vertex="1" parent="qPF_Vhii6mmHq2eTDAJq-38">
          <mxGeometry y="156" width="190" height="26" as="geometry" />
        </mxCell>
        <mxCell id="qPF_Vhii6mmHq2eTDAJq-44" value="yamlReader: YamlReader" style="text;strokeColor=none;fillColor=none;align=left;verticalAlign=top;spacingLeft=4;spacingRight=4;overflow=hidden;rotatable=0;points=[[0,0.5],[1,0.5]];portConstraint=eastwest;whiteSpace=wrap;html=1;" vertex="1" parent="qPF_Vhii6mmHq2eTDAJq-38">
          <mxGeometry y="182" width="190" height="26" as="geometry" />
        </mxCell>
        <mxCell id="qPF_Vhii6mmHq2eTDAJq-42" value="xmlReader: XmlReader" style="text;strokeColor=none;fillColor=none;align=left;verticalAlign=top;spacingLeft=4;spacingRight=4;overflow=hidden;rotatable=0;points=[[0,0.5],[1,0.5]];portConstraint=eastwest;whiteSpace=wrap;html=1;" vertex="1" parent="qPF_Vhii6mmHq2eTDAJq-38">
          <mxGeometry y="208" width="190" height="26" as="geometry" />
        </mxCell>
        <mxCell id="qPF_Vhii6mmHq2eTDAJq-40" value="" style="line;strokeWidth=1;fillColor=none;align=left;verticalAlign=middle;spacingTop=-1;spacingLeft=3;spacingRight=3;rotatable=0;labelPosition=right;points=[];portConstraint=eastwest;strokeColor=inherit;" vertex="1" parent="qPF_Vhii6mmHq2eTDAJq-38">
          <mxGeometry y="234" width="190" height="8" as="geometry" />
        </mxCell>
        <mxCell id="qPF_Vhii6mmHq2eTDAJq-50" value="FrameTree" style="swimlane;fontStyle=1;align=center;verticalAlign=top;childLayout=stackLayout;horizontal=1;startSize=26;horizontalStack=0;resizeParent=1;resizeParentMax=0;resizeLast=0;collapsible=1;marginBottom=0;whiteSpace=wrap;html=1;" vertex="1" parent="1">
          <mxGeometry x="730" y="450" width="160" height="60" as="geometry" />
        </mxCell>
        <mxCell id="qPF_Vhii6mmHq2eTDAJq-51" value="panel: JPanel" style="text;strokeColor=none;fillColor=none;align=left;verticalAlign=top;spacingLeft=4;spacingRight=4;overflow=hidden;rotatable=0;points=[[0,0.5],[1,0.5]];portConstraint=eastwest;whiteSpace=wrap;html=1;" vertex="1" parent="qPF_Vhii6mmHq2eTDAJq-50">
          <mxGeometry y="26" width="160" height="26" as="geometry" />
        </mxCell>
        <mxCell id="qPF_Vhii6mmHq2eTDAJq-52" value="" style="line;strokeWidth=1;fillColor=none;align=left;verticalAlign=middle;spacingTop=-1;spacingLeft=3;spacingRight=3;rotatable=0;labelPosition=right;points=[];portConstraint=eastwest;strokeColor=inherit;" vertex="1" parent="qPF_Vhii6mmHq2eTDAJq-50">
          <mxGeometry y="52" width="160" height="8" as="geometry" />
        </mxCell>
        <mxCell id="qPF_Vhii6mmHq2eTDAJq-54" value="Tree" style="swimlane;fontStyle=1;align=center;verticalAlign=top;childLayout=stackLayout;horizontal=1;startSize=26;horizontalStack=0;resizeParent=1;resizeParentMax=0;resizeLast=0;collapsible=1;marginBottom=0;whiteSpace=wrap;html=1;" vertex="1" parent="1">
          <mxGeometry x="730" y="570" width="160" height="60" as="geometry" />
        </mxCell>
        <mxCell id="qPF_Vhii6mmHq2eTDAJq-56" value="" style="line;strokeWidth=1;fillColor=none;align=left;verticalAlign=middle;spacingTop=-1;spacingLeft=3;spacingRight=3;rotatable=0;labelPosition=right;points=[];portConstraint=eastwest;strokeColor=inherit;" vertex="1" parent="qPF_Vhii6mmHq2eTDAJq-54">
          <mxGeometry y="26" width="160" height="8" as="geometry" />
        </mxCell>
        <mxCell id="qPF_Vhii6mmHq2eTDAJq-57" value="+ createTree()" style="text;strokeColor=none;fillColor=none;align=left;verticalAlign=top;spacingLeft=4;spacingRight=4;overflow=hidden;rotatable=0;points=[[0,0.5],[1,0.5]];portConstraint=eastwest;whiteSpace=wrap;html=1;" vertex="1" parent="qPF_Vhii6mmHq2eTDAJq-54">
          <mxGeometry y="34" width="160" height="26" as="geometry" />
        </mxCell>
        <mxCell id="qPF_Vhii6mmHq2eTDAJq-58" value="JfileChooser" style="swimlane;fontStyle=1;align=center;verticalAlign=top;childLayout=stackLayout;horizontal=1;startSize=26;horizontalStack=0;resizeParent=1;resizeParentMax=0;resizeLast=0;collapsible=1;marginBottom=0;whiteSpace=wrap;html=1;" vertex="1" parent="1">
          <mxGeometry x="1090" y="150" width="160" height="86" as="geometry" />
        </mxCell>
        <mxCell id="qPF_Vhii6mmHq2eTDAJq-60" value="" style="line;strokeWidth=1;fillColor=none;align=left;verticalAlign=middle;spacingTop=-1;spacingLeft=3;spacingRight=3;rotatable=0;labelPosition=right;points=[];portConstraint=eastwest;strokeColor=inherit;" vertex="1" parent="qPF_Vhii6mmHq2eTDAJq-58">
          <mxGeometry y="26" width="160" height="8" as="geometry" />
        </mxCell>
        <mxCell id="qPF_Vhii6mmHq2eTDAJq-61" value="+ openFile()" style="text;strokeColor=none;fillColor=none;align=left;verticalAlign=top;spacingLeft=4;spacingRight=4;overflow=hidden;rotatable=0;points=[[0,0.5],[1,0.5]];portConstraint=eastwest;whiteSpace=wrap;html=1;" vertex="1" parent="qPF_Vhii6mmHq2eTDAJq-58">
          <mxGeometry y="34" width="160" height="26" as="geometry" />
        </mxCell>
        <mxCell id="qPF_Vhii6mmHq2eTDAJq-62" value="+ openMFile()" style="text;strokeColor=none;fillColor=none;align=left;verticalAlign=top;spacingLeft=4;spacingRight=4;overflow=hidden;rotatable=0;points=[[0,0.5],[1,0.5]];portConstraint=eastwest;whiteSpace=wrap;html=1;" vertex="1" parent="qPF_Vhii6mmHq2eTDAJq-58">
          <mxGeometry y="60" width="160" height="26" as="geometry" />
        </mxCell>
        <mxCell id="qPF_Vhii6mmHq2eTDAJq-63" value="ParseM" style="swimlane;fontStyle=1;align=center;verticalAlign=top;childLayout=stackLayout;horizontal=1;startSize=26;horizontalStack=0;resizeParent=1;resizeParentMax=0;resizeLast=0;collapsible=1;marginBottom=0;whiteSpace=wrap;html=1;" vertex="1" parent="1">
          <mxGeometry x="1090" y="290" width="160" height="138" as="geometry" />
        </mxCell>
        <mxCell id="qPF_Vhii6mmHq2eTDAJq-65" value="" style="line;strokeWidth=1;fillColor=none;align=left;verticalAlign=middle;spacingTop=-1;spacingLeft=3;spacingRight=3;rotatable=0;labelPosition=right;points=[];portConstraint=eastwest;strokeColor=inherit;" vertex="1" parent="qPF_Vhii6mmHq2eTDAJq-63">
          <mxGeometry y="26" width="160" height="8" as="geometry" />
        </mxCell>
        <mxCell id="qPF_Vhii6mmHq2eTDAJq-66" value="- readMFile()" style="text;strokeColor=none;fillColor=none;align=left;verticalAlign=top;spacingLeft=4;spacingRight=4;overflow=hidden;rotatable=0;points=[[0,0.5],[1,0.5]];portConstraint=eastwest;whiteSpace=wrap;html=1;" vertex="1" parent="qPF_Vhii6mmHq2eTDAJq-63">
          <mxGeometry y="34" width="160" height="26" as="geometry" />
        </mxCell>
        <mxCell id="qPF_Vhii6mmHq2eTDAJq-67" value="- convertToXml()" style="text;strokeColor=none;fillColor=none;align=left;verticalAlign=top;spacingLeft=4;spacingRight=4;overflow=hidden;rotatable=0;points=[[0,0.5],[1,0.5]];portConstraint=eastwest;whiteSpace=wrap;html=1;" vertex="1" parent="qPF_Vhii6mmHq2eTDAJq-63">
          <mxGeometry y="60" width="160" height="26" as="geometry" />
        </mxCell>
        <mxCell id="qPF_Vhii6mmHq2eTDAJq-69" value="- convertToJson" style="text;strokeColor=none;fillColor=none;align=left;verticalAlign=top;spacingLeft=4;spacingRight=4;overflow=hidden;rotatable=0;points=[[0,0.5],[1,0.5]];portConstraint=eastwest;whiteSpace=wrap;html=1;" vertex="1" parent="qPF_Vhii6mmHq2eTDAJq-63">
          <mxGeometry y="86" width="160" height="26" as="geometry" />
        </mxCell>
        <mxCell id="qPF_Vhii6mmHq2eTDAJq-68" value="- convertToYaml" style="text;strokeColor=none;fillColor=none;align=left;verticalAlign=top;spacingLeft=4;spacingRight=4;overflow=hidden;rotatable=0;points=[[0,0.5],[1,0.5]];portConstraint=eastwest;whiteSpace=wrap;html=1;" vertex="1" parent="qPF_Vhii6mmHq2eTDAJq-63">
          <mxGeometry y="112" width="160" height="26" as="geometry" />
        </mxCell>
        <mxCell id="qPF_Vhii6mmHq2eTDAJq-71" value="ReactorType" style="swimlane;fontStyle=1;align=center;verticalAlign=top;childLayout=stackLayout;horizontal=1;startSize=26;horizontalStack=0;resizeParent=1;resizeParentMax=0;resizeLast=0;collapsible=1;marginBottom=0;whiteSpace=wrap;html=1;" vertex="1" parent="1">
          <mxGeometry x="1090" y="480" width="160" height="60" as="geometry" />
        </mxCell>
        <mxCell id="qPF_Vhii6mmHq2eTDAJq-73" value="" style="line;strokeWidth=1;fillColor=none;align=left;verticalAlign=middle;spacingTop=-1;spacingLeft=3;spacingRight=3;rotatable=0;labelPosition=right;points=[];portConstraint=eastwest;strokeColor=inherit;" vertex="1" parent="qPF_Vhii6mmHq2eTDAJq-71">
          <mxGeometry y="26" width="160" height="8" as="geometry" />
        </mxCell>
        <mxCell id="qPF_Vhii6mmHq2eTDAJq-74" value="+ parseMContent()" style="text;strokeColor=none;fillColor=none;align=left;verticalAlign=top;spacingLeft=4;spacingRight=4;overflow=hidden;rotatable=0;points=[[0,0.5],[1,0.5]];portConstraint=eastwest;whiteSpace=wrap;html=1;" vertex="1" parent="qPF_Vhii6mmHq2eTDAJq-71">
          <mxGeometry y="34" width="160" height="26" as="geometry" />
        </mxCell>
        <mxCell id="qPF_Vhii6mmHq2eTDAJq-75" value="ReactorHolder" style="swimlane;fontStyle=1;align=center;verticalAlign=top;childLayout=stackLayout;horizontal=1;startSize=26;horizontalStack=0;resizeParent=1;resizeParentMax=0;resizeLast=0;collapsible=1;marginBottom=0;whiteSpace=wrap;html=1;" vertex="1" parent="1">
          <mxGeometry x="-45" y="557" width="280" height="86" as="geometry" />
        </mxCell>
        <mxCell id="qPF_Vhii6mmHq2eTDAJq-76" value="reactorHashMap: HashMap&amp;lt;String, Reactor&amp;gt;" style="text;strokeColor=none;fillColor=none;align=left;verticalAlign=top;spacingLeft=4;spacingRight=4;overflow=hidden;rotatable=0;points=[[0,0.5],[1,0.5]];portConstraint=eastwest;whiteSpace=wrap;html=1;" vertex="1" parent="qPF_Vhii6mmHq2eTDAJq-75">
          <mxGeometry y="26" width="280" height="26" as="geometry" />
        </mxCell>
        <mxCell id="qPF_Vhii6mmHq2eTDAJq-77" value="" style="line;strokeWidth=1;fillColor=none;align=left;verticalAlign=middle;spacingTop=-1;spacingLeft=3;spacingRight=3;rotatable=0;labelPosition=right;points=[];portConstraint=eastwest;strokeColor=inherit;" vertex="1" parent="qPF_Vhii6mmHq2eTDAJq-75">
          <mxGeometry y="52" width="280" height="8" as="geometry" />
        </mxCell>
        <mxCell id="qPF_Vhii6mmHq2eTDAJq-78" value="addReactor(String, Reactor)" style="text;strokeColor=none;fillColor=none;align=left;verticalAlign=top;spacingLeft=4;spacingRight=4;overflow=hidden;rotatable=0;points=[[0,0.5],[1,0.5]];portConstraint=eastwest;whiteSpace=wrap;html=1;" vertex="1" parent="qPF_Vhii6mmHq2eTDAJq-75">
          <mxGeometry y="60" width="280" height="26" as="geometry" />
        </mxCell>
        <mxCell id="qPF_Vhii6mmHq2eTDAJq-79" value="Reactor" style="swimlane;fontStyle=1;align=center;verticalAlign=top;childLayout=stackLayout;horizontal=1;startSize=26;horizontalStack=0;resizeParent=1;resizeParentMax=0;resizeLast=0;collapsible=1;marginBottom=0;whiteSpace=wrap;html=1;" vertex="1" parent="1">
          <mxGeometry x="15" y="710" width="160" height="294" as="geometry" />
        </mxCell>
        <mxCell id="qPF_Vhii6mmHq2eTDAJq-80" value="reactorClass: String" style="text;strokeColor=none;fillColor=none;align=left;verticalAlign=top;spacingLeft=4;spacingRight=4;overflow=hidden;rotatable=0;points=[[0,0.5],[1,0.5]];portConstraint=eastwest;whiteSpace=wrap;html=1;" vertex="1" parent="qPF_Vhii6mmHq2eTDAJq-79">
          <mxGeometry y="26" width="160" height="26" as="geometry" />
        </mxCell>
        <mxCell id="qPF_Vhii6mmHq2eTDAJq-87" value="fileType: String" style="text;strokeColor=none;fillColor=none;align=left;verticalAlign=top;spacingLeft=4;spacingRight=4;overflow=hidden;rotatable=0;points=[[0,0.5],[1,0.5]];portConstraint=eastwest;whiteSpace=wrap;html=1;" vertex="1" parent="qPF_Vhii6mmHq2eTDAJq-79">
          <mxGeometry y="52" width="160" height="26" as="geometry" />
        </mxCell>
        <mxCell id="qPF_Vhii6mmHq2eTDAJq-86" value="electricalCapacity: Double" style="text;strokeColor=none;fillColor=none;align=left;verticalAlign=top;spacingLeft=4;spacingRight=4;overflow=hidden;rotatable=0;points=[[0,0.5],[1,0.5]];portConstraint=eastwest;whiteSpace=wrap;html=1;" vertex="1" parent="qPF_Vhii6mmHq2eTDAJq-79">
          <mxGeometry y="78" width="160" height="26" as="geometry" />
        </mxCell>
        <mxCell id="qPF_Vhii6mmHq2eTDAJq-85" value="thermalCapacity: Double" style="text;strokeColor=none;fillColor=none;align=left;verticalAlign=top;spacingLeft=4;spacingRight=4;overflow=hidden;rotatable=0;points=[[0,0.5],[1,0.5]];portConstraint=eastwest;whiteSpace=wrap;html=1;" vertex="1" parent="qPF_Vhii6mmHq2eTDAJq-79">
          <mxGeometry y="104" width="160" height="26" as="geometry" />
        </mxCell>
        <mxCell id="qPF_Vhii6mmHq2eTDAJq-84" value="burnup: Double" style="text;strokeColor=none;fillColor=none;align=left;verticalAlign=top;spacingLeft=4;spacingRight=4;overflow=hidden;rotatable=0;points=[[0,0.5],[1,0.5]];portConstraint=eastwest;whiteSpace=wrap;html=1;" vertex="1" parent="qPF_Vhii6mmHq2eTDAJq-79">
          <mxGeometry y="130" width="160" height="26" as="geometry" />
        </mxCell>
        <mxCell id="qPF_Vhii6mmHq2eTDAJq-83" value="enrichment: Double" style="text;strokeColor=none;fillColor=none;align=left;verticalAlign=top;spacingLeft=4;spacingRight=4;overflow=hidden;rotatable=0;points=[[0,0.5],[1,0.5]];portConstraint=eastwest;whiteSpace=wrap;html=1;" vertex="1" parent="qPF_Vhii6mmHq2eTDAJq-79">
          <mxGeometry y="156" width="160" height="26" as="geometry" />
        </mxCell>
        <mxCell id="qPF_Vhii6mmHq2eTDAJq-90" value="kpd: Double" style="text;strokeColor=none;fillColor=none;align=left;verticalAlign=top;spacingLeft=4;spacingRight=4;overflow=hidden;rotatable=0;points=[[0,0.5],[1,0.5]];portConstraint=eastwest;whiteSpace=wrap;html=1;" vertex="1" parent="qPF_Vhii6mmHq2eTDAJq-79">
          <mxGeometry y="182" width="160" height="26" as="geometry" />
        </mxCell>
        <mxCell id="qPF_Vhii6mmHq2eTDAJq-89" value="lifeTime: Integer" style="text;strokeColor=none;fillColor=none;align=left;verticalAlign=top;spacingLeft=4;spacingRight=4;overflow=hidden;rotatable=0;points=[[0,0.5],[1,0.5]];portConstraint=eastwest;whiteSpace=wrap;html=1;" vertex="1" parent="qPF_Vhii6mmHq2eTDAJq-79">
          <mxGeometry y="208" width="160" height="26" as="geometry" />
        </mxCell>
        <mxCell id="qPF_Vhii6mmHq2eTDAJq-88" value="firstLoad: Double" style="text;strokeColor=none;fillColor=none;align=left;verticalAlign=top;spacingLeft=4;spacingRight=4;overflow=hidden;rotatable=0;points=[[0,0.5],[1,0.5]];portConstraint=eastwest;whiteSpace=wrap;html=1;" vertex="1" parent="qPF_Vhii6mmHq2eTDAJq-79">
          <mxGeometry y="234" width="160" height="26" as="geometry" />
        </mxCell>
        <mxCell id="qPF_Vhii6mmHq2eTDAJq-81" value="" style="line;strokeWidth=1;fillColor=none;align=left;verticalAlign=middle;spacingTop=-1;spacingLeft=3;spacingRight=3;rotatable=0;labelPosition=right;points=[];portConstraint=eastwest;strokeColor=inherit;" vertex="1" parent="qPF_Vhii6mmHq2eTDAJq-79">
          <mxGeometry y="260" width="160" height="8" as="geometry" />
        </mxCell>
        <mxCell id="qPF_Vhii6mmHq2eTDAJq-82" value="+ toString()" style="text;strokeColor=none;fillColor=none;align=left;verticalAlign=top;spacingLeft=4;spacingRight=4;overflow=hidden;rotatable=0;points=[[0,0.5],[1,0.5]];portConstraint=eastwest;whiteSpace=wrap;html=1;" vertex="1" parent="qPF_Vhii6mmHq2eTDAJq-79">
          <mxGeometry y="268" width="160" height="26" as="geometry" />
        </mxCell>
        <mxCell id="qPF_Vhii6mmHq2eTDAJq-91" value="" style="endArrow=open;endSize=12;dashed=1;html=1;rounded=0;" edge="1" parent="1" source="qPF_Vhii6mmHq2eTDAJq-21" target="qPF_Vhii6mmHq2eTDAJq-75">
          <mxGeometry width="160" relative="1" as="geometry">
            <mxPoint x="110" y="490" as="sourcePoint" />
            <mxPoint x="270" y="490" as="targetPoint" />
          </mxGeometry>
        </mxCell>
        <mxCell id="qPF_Vhii6mmHq2eTDAJq-92" value="" style="endArrow=open;endSize=12;dashed=1;html=1;rounded=0;" edge="1" parent="1" source="qPF_Vhii6mmHq2eTDAJq-12" target="qPF_Vhii6mmHq2eTDAJq-75">
          <mxGeometry width="160" relative="1" as="geometry">
            <mxPoint x="110" y="490" as="sourcePoint" />
            <mxPoint x="270" y="490" as="targetPoint" />
          </mxGeometry>
        </mxCell>
        <mxCell id="qPF_Vhii6mmHq2eTDAJq-93" value="" style="endArrow=open;endSize=12;dashed=1;html=1;rounded=0;" edge="1" parent="1" source="qPF_Vhii6mmHq2eTDAJq-26" target="qPF_Vhii6mmHq2eTDAJq-75">
          <mxGeometry width="160" relative="1" as="geometry">
            <mxPoint x="110" y="490" as="sourcePoint" />
            <mxPoint x="270" y="490" as="targetPoint" />
          </mxGeometry>
        </mxCell>
        <mxCell id="qPF_Vhii6mmHq2eTDAJq-95" value="" style="endArrow=open;endSize=12;dashed=1;html=1;rounded=0;" edge="1" parent="1" source="qPF_Vhii6mmHq2eTDAJq-75" target="qPF_Vhii6mmHq2eTDAJq-79">
          <mxGeometry x="0.1045" width="160" relative="1" as="geometry">
            <mxPoint x="110" y="630" as="sourcePoint" />
            <mxPoint x="270" y="630" as="targetPoint" />
            <mxPoint as="offset" />
          </mxGeometry>
        </mxCell>
        <mxCell id="qPF_Vhii6mmHq2eTDAJq-97" value="" style="endArrow=open;endFill=1;endSize=12;html=1;rounded=0;" edge="1" parent="1" source="qPF_Vhii6mmHq2eTDAJq-34" target="qPF_Vhii6mmHq2eTDAJq-38">
          <mxGeometry width="160" relative="1" as="geometry">
            <mxPoint x="780" y="170" as="sourcePoint" />
            <mxPoint x="940" y="170" as="targetPoint" />
          </mxGeometry>
        </mxCell>
        <mxCell id="qPF_Vhii6mmHq2eTDAJq-99" value="" style="endArrow=open;endFill=1;endSize=12;html=1;rounded=0;" edge="1" parent="1" source="qPF_Vhii6mmHq2eTDAJq-38" target="qPF_Vhii6mmHq2eTDAJq-50">
          <mxGeometry width="160" relative="1" as="geometry">
            <mxPoint x="780" y="340" as="sourcePoint" />
            <mxPoint x="940" y="340" as="targetPoint" />
          </mxGeometry>
        </mxCell>
        <mxCell id="qPF_Vhii6mmHq2eTDAJq-100" value="" style="endArrow=open;endFill=1;endSize=12;html=1;rounded=0;" edge="1" parent="1" source="qPF_Vhii6mmHq2eTDAJq-50" target="qPF_Vhii6mmHq2eTDAJq-54">
          <mxGeometry width="160" relative="1" as="geometry">
            <mxPoint x="780" y="510" as="sourcePoint" />
            <mxPoint x="940" y="550" as="targetPoint" />
          </mxGeometry>
        </mxCell>
        <mxCell id="qPF_Vhii6mmHq2eTDAJq-101" value="" style="endArrow=open;endFill=1;endSize=12;html=1;rounded=0;" edge="1" parent="1" source="qPF_Vhii6mmHq2eTDAJq-38" target="qPF_Vhii6mmHq2eTDAJq-58">
          <mxGeometry width="160" relative="1" as="geometry">
            <mxPoint x="840" y="220" as="sourcePoint" />
            <mxPoint x="1000" y="220" as="targetPoint" />
          </mxGeometry>
        </mxCell>
        <mxCell id="qPF_Vhii6mmHq2eTDAJq-102" value="" style="endArrow=open;endFill=1;endSize=12;html=1;rounded=0;" edge="1" parent="1" source="qPF_Vhii6mmHq2eTDAJq-63" target="qPF_Vhii6mmHq2eTDAJq-71">
          <mxGeometry width="160" relative="1" as="geometry">
            <mxPoint x="950" y="400" as="sourcePoint" />
            <mxPoint x="1110" y="400" as="targetPoint" />
          </mxGeometry>
        </mxCell>
        <mxCell id="qPF_Vhii6mmHq2eTDAJq-103" value="" style="endArrow=open;endFill=1;endSize=12;html=1;rounded=0;" edge="1" parent="1" source="qPF_Vhii6mmHq2eTDAJq-38" target="qPF_Vhii6mmHq2eTDAJq-63">
          <mxGeometry width="160" relative="1" as="geometry">
            <mxPoint x="950" y="400" as="sourcePoint" />
            <mxPoint x="1110" y="400" as="targetPoint" />
          </mxGeometry>
        </mxCell>
        <mxCell id="qPF_Vhii6mmHq2eTDAJq-104" value="" style="endArrow=open;endFill=1;endSize=12;html=1;rounded=0;" edge="1" parent="1" source="qPF_Vhii6mmHq2eTDAJq-38" target="qPF_Vhii6mmHq2eTDAJq-21">
          <mxGeometry width="160" relative="1" as="geometry">
            <mxPoint x="700" y="470" as="sourcePoint" />
            <mxPoint x="-160" y="490" as="targetPoint" />
            <Array as="points">
              <mxPoint x="600" y="490" />
              <mxPoint x="-120" y="490" />
            </Array>
          </mxGeometry>
        </mxCell>
        <mxCell id="qPF_Vhii6mmHq2eTDAJq-105" value="" style="endArrow=open;endFill=1;endSize=12;html=1;rounded=0;" edge="1" parent="1" source="qPF_Vhii6mmHq2eTDAJq-38" target="qPF_Vhii6mmHq2eTDAJq-12">
          <mxGeometry width="160" relative="1" as="geometry">
            <mxPoint x="700" y="470" as="sourcePoint" />
            <mxPoint x="860" y="470" as="targetPoint" />
            <Array as="points">
              <mxPoint x="600" y="490" />
              <mxPoint x="140" y="490" />
            </Array>
          </mxGeometry>
        </mxCell>
        <mxCell id="qPF_Vhii6mmHq2eTDAJq-106" value="" style="endArrow=open;endFill=1;endSize=12;html=1;rounded=0;" edge="1" parent="1" source="qPF_Vhii6mmHq2eTDAJq-38" target="qPF_Vhii6mmHq2eTDAJq-26">
          <mxGeometry width="160" relative="1" as="geometry">
            <mxPoint x="700" y="470" as="sourcePoint" />
            <mxPoint x="860" y="470" as="targetPoint" />
          </mxGeometry>
        </mxCell>
        <mxCell id="qPF_Vhii6mmHq2eTDAJq-107" value="Main" style="swimlane;fontStyle=1;align=center;verticalAlign=top;childLayout=stackLayout;horizontal=1;startSize=26;horizontalStack=0;resizeParent=1;resizeParentMax=0;resizeLast=0;collapsible=1;marginBottom=0;whiteSpace=wrap;html=1;" vertex="1" parent="1">
          <mxGeometry x="400" y="40" width="160" height="86" as="geometry" />
        </mxCell>
        <mxCell id="qPF_Vhii6mmHq2eTDAJq-108" value="frame: Frame" style="text;strokeColor=none;fillColor=none;align=left;verticalAlign=top;spacingLeft=4;spacingRight=4;overflow=hidden;rotatable=0;points=[[0,0.5],[1,0.5]];portConstraint=eastwest;whiteSpace=wrap;html=1;" vertex="1" parent="qPF_Vhii6mmHq2eTDAJq-107">
          <mxGeometry y="26" width="160" height="26" as="geometry" />
        </mxCell>
        <mxCell id="qPF_Vhii6mmHq2eTDAJq-109" value="" style="line;strokeWidth=1;fillColor=none;align=left;verticalAlign=middle;spacingTop=-1;spacingLeft=3;spacingRight=3;rotatable=0;labelPosition=right;points=[];portConstraint=eastwest;strokeColor=inherit;" vertex="1" parent="qPF_Vhii6mmHq2eTDAJq-107">
          <mxGeometry y="52" width="160" height="8" as="geometry" />
        </mxCell>
        <mxCell id="qPF_Vhii6mmHq2eTDAJq-110" value="main()" style="text;strokeColor=none;fillColor=none;align=left;verticalAlign=top;spacingLeft=4;spacingRight=4;overflow=hidden;rotatable=0;points=[[0,0.5],[1,0.5]];portConstraint=eastwest;whiteSpace=wrap;html=1;" vertex="1" parent="qPF_Vhii6mmHq2eTDAJq-107">
          <mxGeometry y="60" width="160" height="26" as="geometry" />
        </mxCell>
        <mxCell id="qPF_Vhii6mmHq2eTDAJq-111" value="" style="endArrow=open;endFill=1;endSize=12;html=1;rounded=0;" edge="1" parent="1" source="qPF_Vhii6mmHq2eTDAJq-107" target="qPF_Vhii6mmHq2eTDAJq-34">
          <mxGeometry width="160" relative="1" as="geometry">
            <mxPoint x="700" y="240" as="sourcePoint" />
            <mxPoint x="860" y="240" as="targetPoint" />
          </mxGeometry>
        </mxCell>
      </root>
    </mxGraphModel>
  </diagram>
</mxfile>
